<svg xmlns="http://www.w3.org/2000/svg" viewBox="0 0 512 512">
  <title>alert</title>
  <g>
    <path d="M494,432.19a30.54,30.54,0,0,1-30.45,30.45H52.45A30.54,30.54,0,0,1,22,432.19h0a30.54,30.54,0,0,1,30.45-30.45h411.1A30.54,30.54,0,0,1,494,432.19Z" style="fill: #cd412d"/>
    <path d="M235.2,66.84c13.09-19.63,31.55-21.13,45.62,0L486.09,394c15.21,22.81,7.6,38.2-15.21,38.2H45.12c-22.81,0-30.42-15.39-15.21-38.2Z" style="fill: #f05f50"/>
    <polygon points="258 97.23 67.68 401.74 448.32 401.74 258 97.23" style="fill: #fbd462"/>
    <path d="M258,318a15.23,15.23,0,0,1-15.23-15.23V211.42a15.23,15.23,0,0,1,30.46,0v91.35A15.23,15.23,0,0,1,258,318Z" style="fill: #5c5d5e"/>
    <circle cx="258" cy="348.45" r="15.23" style="fill: #5c5d5e"/>
  </g>
</svg>
