<svg xmlns="http://www.w3.org/2000/svg" viewBox="0 0 600 600">
  <title>computer</title>
  <circle cx="300.52" cy="300.53" r="286.32" style="fill: #fff"/>
  <g>
    <polygon points="348.52 412.8 253.86 412.8 242.02 483.8 360.36 483.8 348.52 412.8" style="fill: #ecf0f2"/>
    <path d="M111.86,365.47v23.66a23.74,23.74,0,0,0,23.66,23.67H466.86a23.74,23.74,0,0,0,23.67-23.67V365.47Z" style="fill: #d4d7d9"/>
    <path d="M466.86,140.63H135.52a23.74,23.74,0,0,0-23.66,23.67V365.47H490.53V164.3A23.74,23.74,0,0,0,466.86,140.63Z" style="fill: #474849"/>
    <rect x="135.52" y="164.3" width="331.34" height="177.5" style="fill: #fff"/>
    <polygon points="372.19 483.8 230.19 483.8 224.27 495.63 378.11 495.63 372.19 483.8" style="fill: #d4d7d9"/>
    <g>
      <rect x="187.59" y="189.15" width="226.61" height="125.43" style="fill: #ecf0f2"/>
      <rect x="187.59" y="314.58" width="226.61" height="7.69" style="fill: #d4d7d9"/>
      <rect x="305.33" y="228.2" width="31.36" height="7.69" style="fill: #f47946"/>
      <rect x="344.38" y="228.2" width="46.74" height="7.69" style="fill: #f47946"/>
      <rect x="305.33" y="212.82" width="55.03" height="7.69" style="fill: #f47946"/>
      <rect x="305.33" y="259.56" width="85.79" height="7.69" style="fill: #d4d7d9"/>
      <rect x="305.33" y="275.53" width="70.41" height="7.69" style="fill: #d4d7d9"/>
      <rect x="305.33" y="244.17" width="85.79" height="7.69" style="fill: #d4d7d9"/>
      <path d="M281.67,247.72a35,35,0,0,0-34.91-34.9c-18.94,0-34.91,16-34.91,34.9,0,11.25,3.55,20.71,11.83,27.22,3-8.87,13-15.38,23.67-15.38s20.12,6.51,23.67,15.38C278.12,269,281.67,259,281.67,247.72Z" style="fill: #fff"/>
      <circle cx="246.17" cy="240.03" r="11.83" style="fill: #838586"/>
      <path d="M246.17,259.56c-10.06,0-20.12,6.51-23.67,15.38,5.92,4.73,15.38,7.69,23.67,7.69a41.83,41.83,0,0,0,23.66-7.69C266.87,266.07,256.82,259.56,246.17,259.56Z" style="fill: #838586"/>
    </g>
  </g>
</svg>
