<?xml version="1.0" encoding="utf-8"?>
<!-- Generator: Adobe Illustrator 22.1.0, SVG Export Plug-In . SVG Version: 6.00 Build 0)  -->
<svg version="1.1" id="Layer_1" xmlns="http://www.w3.org/2000/svg" xmlns:xlink="http://www.w3.org/1999/xlink" x="0px" y="0px"
	 width="89.2px" height="64.3px" viewBox="0 0 89.2 64.3" style="enable-background:new 0 0 89.2 64.3;" xml:space="preserve">
<style type="text/css">
	.st0{fill:#348693;}
	.st1{fill:#00B6E2;}
	.st2{fill:#E0AD48;}
	.st3{fill:#FFCB58;}
	.st4{fill:#E56133;}
	.st5{fill:#FF7A40;}
	.st6{fill:#464748;}
	.st7{fill:#EBF0F2;}
</style>
<g>
	<path class="st0" d="M75.6,52.7c0,1.1-0.9,2-2,2h-58c-1.1,0-2-0.9-2-2v-30c0-1.1,0.9-2,2-2h58c1.1,0,2,0.9,2,2V52.7z"/>
	<path class="st1" d="M75.6,48.7c0,1.1-0.9,2-2,2h-58c-1.1,0-2-0.9-2-2v-30c0-1.1,0.9-2,2-2h58c1.1,0,2,0.9,2,2V48.7z"/>
	<path class="st1" d="M71.6,12.7c0-1.1-0.9-2-2-2h-34c-1.1,0-2-0.9-2-2l0,0c0-1.1-0.9-2-2-2h-12c-1.1,0-2,0.9-2,2v4c0,1.1,0.9,2,2,2
		h50C70.7,14.7,71.6,13.8,71.6,12.7L71.6,12.7z"/>
</g>
<g>
	<path class="st2" d="M35.2,63.2c0,0.6-0.5,1.1-1.1,1.1H1.1c-0.6,0-1.1-0.5-1.1-1.1v-17C0,45.5,0.5,45,1.1,45h32.9
		c0.6,0,1.1,0.5,1.1,1.1V63.2z"/>
	<path class="st3" d="M35.2,60.9c0,0.6-0.5,1.1-1.1,1.1H1.1c-0.6,0-1.1-0.5-1.1-1.1v-17c0-0.6,0.5-1.1,1.1-1.1h32.9
		c0.6,0,1.1,0.5,1.1,1.1V60.9z"/>
	<path class="st3" d="M32.9,40.5c0-0.6-0.5-1.1-1.1-1.1H12.5c-0.6,0-1.1-0.5-1.1-1.1l0,0c0-0.6-0.5-1.1-1.1-1.1H3.4
		c-0.6,0-1.1,0.5-1.1,1.1v2.3c0,0.6,0.5,1.1,1.1,1.1h28.4C32.4,41.6,32.9,41.1,32.9,40.5L32.9,40.5z"/>
</g>
<g>
	<path class="st4" d="M89.2,26.1c0,0.6-0.5,1.1-1.1,1.1H55.1c-0.6,0-1.1-0.5-1.1-1.1v-17c0-0.6,0.5-1.1,1.1-1.1h32.9
		c0.6,0,1.1,0.5,1.1,1.1V26.1z"/>
	<path class="st5" d="M89.2,23.8c0,0.6-0.5,1.1-1.1,1.1H55.1c-0.6,0-1.1-0.5-1.1-1.1v-17c0-0.6,0.5-1.1,1.1-1.1h32.9
		c0.6,0,1.1,0.5,1.1,1.1V23.8z"/>
	<path class="st5" d="M86.9,3.4c0-0.6-0.5-1.1-1.1-1.1H66.5c-0.6,0-1.1-0.5-1.1-1.1l0,0c0-0.6-0.5-1.1-1.1-1.1h-6.8
		c-0.6,0-1.1,0.5-1.1,1.1v2.3c0,0.6,0.5,1.1,1.1,1.1h28.4C86.4,4.5,86.9,4,86.9,3.4L86.9,3.4z"/>
</g>
<g>
	<path class="st6" d="M25.2,14.6c1.3-1.3,2.7-2.4,4.2-3.4c1.5-1,3-1.8,4.7-2.5c1.6-0.7,3.3-1.2,5-1.5c1.7-0.4,3.5-0.5,5.2-0.6
		c1.8,0,3.5,0.1,5.3,0.5c1.8,0.3,3.5,0.8,5.2,1.5l-0.6,1.4c-1.6-0.6-3.2-1.1-4.9-1.4c-1.6-0.3-3.3-0.5-5-0.4c-1.7,0-3.3,0.2-5,0.5
		c-1.6,0.3-3.2,0.8-4.8,1.5c-1.5,0.6-3,1.4-4.4,2.4c-1.4,0.9-2.7,2-4,3.2L25.2,14.6z"/>
</g>
<g>
	<path class="st6" d="M39.6,61l0.3-1.5c1.6,0.3,3.3,0.5,5,0.4c1.7,0,3.3-0.2,5-0.5c1.6-0.3,3.2-0.8,4.8-1.5c1.5-0.6,3-1.4,4.4-2.4
		c1.4-0.9,2.7-2,4-3.2l1.1,1.1c-1.3,1.3-2.7,2.4-4.2,3.4c-1.5,1-3.1,1.8-4.7,2.5c-1.6,0.7-3.3,1.2-5,1.5c-1.7,0.3-3.5,0.5-5.2,0.6
		C43.1,61.5,41.3,61.4,39.6,61z"/>
</g>
<g>
	<polygon class="st6" points="38,60 41.8,57.3 42.6,58.6 40.1,60.4 41.9,62.9 40.7,63.8 	"/>
</g>
<g>
	<polygon class="st6" points="51.5,10.5 54.3,9.1 52.9,6.3 54.3,5.7 56.3,9.8 52.2,11.8 	"/>
</g>
<g>
	<path class="st7" d="M18.1,41.3L18,40.6l1.5-0.3l0.3,1.5l-1.5,0.3C18.1,41.3,18.3,42.1,18.1,41.3z M20.2,43.6l0.5,1.4l-1.4,0.5
		l-0.5-1.4C20.2,43.6,18.8,44.1,20.2,43.6z M17.7,37.8L17.7,37.8l-0.1-0.8l1.5-0.1l0.1,1.5l-1.5,0.1C17.7,37.8,17.7,38.6,17.7,37.8z
		 M21.4,46.7l0.7,1.4l-1.4,0.7l-0.7-1.4C21.4,46.7,20.1,47.4,21.4,46.7z M17.6,34.3l0-0.7l1.5,0.1l-0.1,1.5L17.6,35
		C17.6,34.3,17.6,35,17.6,34.3z M23,49.7l0.8,1.3l-1.2,0.8l-0.8-1.2C23,49.7,21.8,50.5,23,49.7z M18.1,30.8l0.1-0.7l1.5,0.3
		l-0.3,1.5l-1.5-0.3C18.1,30.8,17.9,31.5,18.1,30.8z M19,27.3L19,27.3l0.2-0.7l1.4,0.5l-0.5,1.4L18.7,28C19,27.3,18.7,28,19,27.3z
		 M20.3,24L20.3,24l0.3-0.7L22,24l-0.7,1.3L20,24.7C20.3,24,20,24.7,20.3,24z M22,20.9l0.4-0.6l1.3,0.8l-0.8,1.3l-1.3-0.8
		C22,20.9,21.6,21.6,22,20.9z"/>
</g>
<g>
	<path class="st7" d="M67.7,48.6l0.4-0.7l1.3,0.7L68.7,50l-1.3-0.7C67.7,48.6,67.4,49.2,67.7,48.6z M64,16l0.5,0.5c0,0,0,0,0,0
		l0.5,0.5L64,18.1l-0.5-0.5l0,0l-0.5-0.5C64,16,62.9,17.1,64,16z M69.2,45.6l0.3-0.7l1.4,0.6l-0.3,0.7l0,0l-0.3,0.7l-1.4-0.6
		C69.2,45.6,68.9,46.3,69.2,45.6z M66.4,18.6l0.5,0.6l0,0l0.4,0.6l-1.2,0.9l-0.9-1.2C66.4,18.6,65.2,19.5,66.4,18.6z M70.2,42.4
		l0.2-0.7l1.5,0.4l-0.4,1.5L70,43.1C70.2,42.4,70,43.1,70.2,42.4z M68.5,21.5l0.4,0.6c0,0,0,0,0,0l0.4,0.6l-1.3,0.8l-0.8-1.3
		C68.5,21.5,67.2,22.3,68.5,21.5z M70.8,39.1l0.1-0.8l1.5,0.2l-0.1,0.7l0,0L72.2,40l-1.5-0.2C70.8,39.1,70.7,39.8,70.8,39.1z
		 M70.1,24.6l0.6,1.4l-1.4,0.6L69,25.9l0,0l-0.3-0.7C70.1,24.6,68.7,25.2,70.1,24.6z M71,35.7l0-0.7l1.5,0l0,1.5l-1.5,0
		C71,35.7,71,36.5,71,35.7z M71.4,28l0.4,1.5l-1.5,0.4l-0.4-1.5C71.4,28,69.9,28.4,71.4,28z M70.8,32.4l-0.1-0.7l1.5-0.2l0.2,1.5
		l-1.5,0.2C70.8,32.4,70.9,33.1,70.8,32.4z"/>
</g>
</svg>
