<svg xmlns="http://www.w3.org/2000/svg" viewBox="0 0 600 600">
  <title>document-exchange</title>
  <circle cx="300.52" cy="300.53" r="286.32" style="fill: #fff"/>
  <g>
    <g>
      <path d="M450.41,390.56a9.51,9.51,0,0,1-9.48,9.48h-275a9.51,9.51,0,0,1-9.48-9.48V248.29a9.51,9.51,0,0,1,9.48-9.48h275a9.51,9.51,0,0,1,9.48,9.48Z" style="fill: #348793"/>
      <path d="M450.41,371.59a9.51,9.51,0,0,1-9.48,9.48h-275a9.51,9.51,0,0,1-9.48-9.48V229.33a9.51,9.51,0,0,1,9.48-9.49h275a9.51,9.51,0,0,1,9.48,9.49Z" style="fill: #00b6e1"/>
      <path d="M431.45,200.87a9.52,9.52,0,0,0-9.49-9.48H260.73a9.51,9.51,0,0,1-9.48-9.49h0a9.52,9.52,0,0,0-9.49-9.48h-56.9a9.52,9.52,0,0,0-9.49,9.48v19a9.52,9.52,0,0,0,9.49,9.49H422a9.52,9.52,0,0,0,9.49-9.49Z" style="fill: #00b6e1"/>
    </g>
    <g>
      <path d="M258.83,440.35a5.26,5.26,0,0,1-5.21,5.21H97.13a5.26,5.26,0,0,1-5.22-5.21V359.73A5.38,5.38,0,0,1,97.13,354h156a5.26,5.26,0,0,1,5.22,5.22v81.09Z" style="fill: #e0ad47"/>
      <path d="M258.83,429.44a5.26,5.26,0,0,1-5.21,5.22H97.13a5.26,5.26,0,0,1-5.22-5.22V348.83a5.26,5.26,0,0,1,5.22-5.22h156a5.26,5.26,0,0,1,5.22,5.22v80.61Z" style="fill: #ffcb59"/>
      <path d="M247.93,332.7a5.26,5.26,0,0,0-5.22-5.21H151.19a5.26,5.26,0,0,1-5.22-5.22h0a5.26,5.26,0,0,0-5.21-5.22H108a5.26,5.26,0,0,0-5.22,5.22v10.91a5.26,5.26,0,0,0,5.22,5.21H242.71a6.05,6.05,0,0,0,5.22-5.69Z" style="fill: #ffcb59"/>
    </g>
    <g>
      <path d="M514.91,264.42a5.27,5.27,0,0,1-5.22,5.21H353.2a5.26,5.26,0,0,1-5.21-5.21V183.8a5.26,5.26,0,0,1,5.21-5.21h156a5.26,5.26,0,0,1,5.21,5.21v80.62Z" style="fill: #e56132"/>
      <path d="M514.91,253.51a5.27,5.27,0,0,1-5.22,5.22H353.2a5.26,5.26,0,0,1-5.21-5.22V172.89a5.26,5.26,0,0,1,5.21-5.21h156a5.26,5.26,0,0,1,5.21,5.21v80.62Z" style="fill: #f47946"/>
      <path d="M504,156.77a5.26,5.26,0,0,0-5.22-5.21H407.26a5.28,5.28,0,0,1-5.22-5.22h0a5.26,5.26,0,0,0-5.21-5.22H364.58a5.26,5.26,0,0,0-5.21,5.22v10.91a5.26,5.26,0,0,0,5.21,5.21H499.26a6.09,6.09,0,0,0,4.74-5.69Z" style="fill: #f47946"/>
    </g>
    <path d="M211.41,209.88a129.44,129.44,0,0,1,19.92-16.12,125.33,125.33,0,0,1,22.29-11.86,105.35,105.35,0,0,1,23.71-7.11c8.06-1.9,16.6-2.37,24.66-2.84a112.68,112.68,0,0,1,25.13,2.37,112.46,112.46,0,0,1,24.66,7.11l-2.85,6.64a129.41,129.41,0,0,0-23.23-6.64,98.5,98.5,0,0,0-23.71-1.9,134.21,134.21,0,0,0-23.71,2.37A105.48,105.48,0,0,0,255.51,189a99.76,99.76,0,0,0-20.86,11.38,140.45,140.45,0,0,0-19,15.17Z" style="fill: #474849"/>
    <path d="M279.7,429.91l1.42-7.11a98.5,98.5,0,0,0,23.71,1.9,134.21,134.21,0,0,0,23.71-2.37,105.23,105.23,0,0,0,22.76-7.12,99.12,99.12,0,0,0,20.87-11.38,139.67,139.67,0,0,0,19-15.17l5.21,5.22A128.89,128.89,0,0,1,376.44,410a144.34,144.34,0,0,1-22.29,11.85A105.38,105.38,0,0,1,330.44,429a217.81,217.81,0,0,1-24.66,2.84A92.37,92.37,0,0,1,279.7,429.91Z" style="fill: #474849"/>
    <polygon points="272.11 425.17 290.13 412.37 293.93 418.53 282.07 427.07 290.61 438.93 284.92 443.19 272.11 425.17" style="fill: #474849"/>
    <polygon points="336.13 190.44 349.41 183.8 342.77 170.52 349.41 167.68 358.89 187.12 339.45 196.6 336.13 190.44" style="fill: #474849"/>
    <path d="M177.74,336.5l-.47-3.32,7.11-1.43,1.43,7.12-7.12,1.42Zm10,10.9,2.37,6.64-6.63,2.37-2.38-6.64Zm-11.85-27.5h0l-.48-3.79,7.12-.48.47,7.11-7.11.48Zm17.54,42.2,3.32,6.64-6.64,3.32-3.32-6.64C193.39,362.1,187.23,365.42,193.39,362.1Zm-18-58.8V300l7.12.48-.48,7.11-6.64-.95Zm25.61,73,3.79,6.16-5.69,3.8-3.79-5.69C201,376.33,195.29,380.12,201,376.33ZM177.74,286.7l.48-3.32,7.11,1.43-1.42,7.11-7.11-1.42C177.74,286.7,176.8,290,177.74,286.7ZM182,270.11h0l1-3.32,6.64,2.37-2.37,6.64-6.64-2.37Zm6.17-15.65h0l1.42-3.32,6.64,3.32-3.32,6.16-6.17-2.84Zm8.06-14.7,1.9-2.85,6.16,3.8-3.79,6.16-6.17-3.79Z" style="fill: #ecf0f2"/>
    <path d="M413,371.11l1.9-3.32,6.16,3.32-3.32,6.64-6.16-3.32A23.36,23.36,0,0,1,413,371.11ZM395.41,216.52l2.37,2.37h0l2.37,2.37-4.74,5.22L393,224.11h0l-2.37-2.37C395.41,216.52,390.19,221.74,395.41,216.52Zm24.65,140.37,1.43-3.32,6.64,2.84-1.43,3.32h0l-1.42,3.32-6.64-2.84Zm-13.27-128,2.37,2.85h0l1.89,2.84-5.69,4.27-4.26-5.69Zm18,112.86.94-3.32,7.12,1.9L431,347.4,423.86,345Zm-8.06-99.11,1.89,2.85h0l1.9,2.84-6.17,3.8-3.79-6.17C416.75,242.6,410.58,246.4,416.75,242.6Zm10.9,83.46.48-3.79,7.11,1-.48,3.32h0l-.47,3.79-7.11-.95Zm-3.32-68.76,2.85,6.64-6.64,2.85-1.42-3.32h0l-1.43-3.32Zm4.27,52.64v-3.32h7.11v7.11H428.6Zm1.9-36.51,1.89,7.11-7.11,1.9-1.9-7.12Zm-2.85,20.86-.47-3.32,7.11-1,.95,7.12-7.11.95C427.65,294.29,428.13,297.61,427.65,294.29Z" style="fill: #ecf0f2"/>
  </g>
</svg>
