<?xml version="1.0" encoding="utf-8"?>
<!-- Generator: Adobe Illustrator 22.1.0, SVG Export Plug-In . SVG Version: 6.00 Build 0)  -->
<svg version="1.1" id="Layer_1" xmlns="http://www.w3.org/2000/svg" xmlns:xlink="http://www.w3.org/1999/xlink" x="0px" y="0px"
	 width="109.8px" height="76px" viewBox="0 0 109.8 76" style="enable-background:new 0 0 109.8 76;" xml:space="preserve">
<style type="text/css">
	.st0{fill:#E56133;}
	.st1{fill:#FF7A40;}
	.st2{fill:#EBF0F2;}
	.st3{fill:#348693;}
	.st4{fill:#00B6E2;}
</style>
<g>
	<g>
		<path class="st0" d="M109.8,38c0,2.2-1.8,4-4,4h-52c-2.2,0-4-1.8-4-4V8c0-2.2,1.8-4,4-4h52c2.2,0,4,1.8,4,4V38z"/>
	</g>
	<g>
		<polygon class="st0" points="68.8,54 66.8,54 66.8,38 84.8,38 		"/>
	</g>
	<g>
		<polygon class="st1" points="68.8,49 66.8,49 66.8,33 84.8,33 		"/>
	</g>
	<g>
		<path class="st1" d="M109.8,34c0,2.2-1.8,4-4,4h-52c-2.2,0-4-1.8-4-4V4c0-2.2,1.8-4,4-4h52c2.2,0,4,1.8,4,4V34z"/>
	</g>
	<g>
		<circle class="st0" cx="79.8" cy="21" r="3"/>
	</g>
	<g>
		<circle class="st0" cx="89.8" cy="21" r="3"/>
	</g>
	<g>
		<circle class="st0" cx="69.8" cy="21" r="3"/>
	</g>
	<g>
		<circle class="st2" cx="79.8" cy="19" r="3"/>
	</g>
	<g>
		<circle class="st2" cx="89.8" cy="19" r="3"/>
	</g>
	<g>
		<circle class="st2" cx="69.8" cy="19" r="3"/>
	</g>
</g>
<g>
	<g>
		<path class="st3" d="M0,60c0,2.2,1.8,4,4,4h52c2.2,0,4-1.8,4-4V30c0-2.2-1.8-4-4-4H4c-2.2,0-4,1.8-4,4L0,60z"/>
	</g>
	<g>
		<polygon class="st3" points="41,76 43,76 43,60 25,60 		"/>
	</g>
	<g>
		<polygon class="st4" points="41,71 43,71 43,55 25,55 		"/>
	</g>
	<g>
		<path class="st4" d="M0,56c0,2.2,1.8,4,4,4h52c2.2,0,4-1.8,4-4V26c0-2.2-1.8-4-4-4H4c-2.2,0-4,1.8-4,4L0,56z"/>
	</g>
	<g>
		<circle class="st3" cx="30" cy="43" r="3"/>
	</g>
	<g>
		<circle class="st3" cx="20" cy="43" r="3"/>
	</g>
	<g>
		<circle class="st3" cx="40" cy="43" r="3"/>
	</g>
	<g>
		<circle class="st2" cx="30" cy="41" r="3"/>
	</g>
	<g>
		<circle class="st2" cx="20" cy="41" r="3"/>
	</g>
	<g>
		<circle class="st2" cx="40" cy="41" r="3"/>
	</g>
</g>
</svg>
