<svg xmlns="http://www.w3.org/2000/svg" viewBox="0 0 600 600">
  <title>mag-glass</title>
  <circle cx="300.52" cy="300.53" r="286.32" style="fill: #fff"/>
  <g>
    <path d="M243.92,371.41c-4.61.58-9.22,0-12.68-2.88a18,18,0,0,1-4-24.2L256,304.57a17.35,17.35,0,0,1,28.24,20.17L255.45,364.5A26.81,26.81,0,0,1,243.92,371.41Z" style="fill: #657b8b"/>
    <path d="M159.79,501.65a28.45,28.45,0,0,1-21.32-5.19c-12.68-9.22-13.25-30-8.64-36.88l81.25-112.37c4.61-6.34,24.77-12.67,37.45-3.45s13.26,30,8.65,36.87L175.93,493C171.32,499.34,167.28,500.49,159.79,501.65Z" style="fill: #00b6e1"/>
    <rect x="168.33" y="414.86" width="16.13" height="57.05" transform="translate(-286.41 327.13) rotate(-54.2)" style="fill: #08a3bc"/>
    <rect x="187.32" y="388.42" width="16.13" height="57.05" transform="translate(-257.08 331.55) rotate(-54.2)" style="fill: #08a3bc"/>
    <rect x="206.77" y="362.32" width="16.13" height="57.05" transform="translate(-227.84 336.49) rotate(-54.2)" style="fill: #08a3bc"/>
    <circle cx="326.9" cy="235.42" r="109.49" style="fill: #4f5a61"/>
    <circle cx="326.9" cy="235.42" r="86.44" style="fill: #ecf0f2"/>
    <circle cx="319.41" cy="189.9" r="17.29" style="fill: #fff"/>
    <g>
      <path d="M213.38,127.09a156.62,156.62,0,0,1,24.2-19.59,151.54,151.54,0,0,1,27.09-14.41,127.19,127.19,0,0,1,28.81-8.64c9.79-2.31,20.17-2.89,30-3.46,10.38,0,20.17.57,30.54,2.88a137.23,137.23,0,0,1,30,8.64l-3.46,8.07a158.22,158.22,0,0,0-28.23-8.07,119.05,119.05,0,0,0-28.82-2.3,162.74,162.74,0,0,0-28.81,2.88A127.87,127.87,0,0,0,267,101.73a121.42,121.42,0,0,0-25.35,13.83A170.58,170.58,0,0,0,218.57,134Z" style="fill: #f47946"/>
      <path d="M295.78,395l1.73-8.64a119,119,0,0,0,28.81,2.3,162.76,162.76,0,0,0,28.82-2.88,127.87,127.87,0,0,0,27.66-8.64,121.67,121.67,0,0,0,25.35-13.83,170.58,170.58,0,0,0,23.05-18.44l6.34,6.34a156.62,156.62,0,0,1-24.2,19.59,175.1,175.1,0,0,1-27.09,14.4,127.22,127.22,0,0,1-28.81,8.65,265.61,265.61,0,0,1-30,3.46A139.44,139.44,0,0,1,295.78,395Z" style="fill: #f47946"/>
      <polygon points="286.56 389.28 308.46 373.72 313.65 380.63 298.67 391.01 309.04 405.99 302.12 410.6 286.56 389.28" style="fill: #f47946"/>
      <polygon points="364.36 103.46 380.49 95.97 373 79.84 380.49 75.8 392.02 99.43 368.39 111.53 364.36 103.46" style="fill: #f47946"/>
      <path d="M169.59,270.57l-.58-4,8.64-1.73,1.16,8.07-8.65,1.73C169.59,270.57,170.74,274.61,169.59,270.57Zm12.1,12.68,2.88,8.07-8.07,2.88-2.88-8.07Zm-15-32.85h0l-.58-4.61,8.64-.57.58,8.64-8.07.58Zm21.89,51.29,4,8.07-8.07,3.45-4-8.06C188.6,301.69,181.11,305.15,188.6,301.69Zm-21.89-72,.57-4,8.65.57-.58,8.65-8.64-.58Zm31.11,88.74,4.61,7.49-6.91,4.61-5.19-6.91ZM169.59,209.49l.57-4,8.65,1.15-1.73,8.64-8.65-1.73Zm5.18-19.59h0l1.16-4,8.06,2.89-2.88,8.06L173,193.93Zm7.49-19h0l1.73-4,8.07,4-4,7.49-7.49-3.45Zm9.8-17.86,2.31-3.46,7.49,4.61-4.61,7.49-7.49-5.18Z" style="fill: #ffcb59"/>
      <path d="M455.4,312.06l2.31-4,7.49,4-4,8.07-7.5-4C455.4,312.06,453.1,316.1,455.4,312.06ZM434.08,124.78l2.88,2.88h0l2.88,2.89-6.33,6.33-2.89-3.45h0l-2.88-2.88Zm29.39,170,1.73-4,8.07,3.46-1.73,4h0l-1.73,4-8.07-3.46C463.47,294.77,462.32,298.81,463.47,294.77Zm-15.56-155,2.88,3.45h0l2.31,3.46-6.92,5.19L441,145Zm21.9,136.56,1.15-4,8.65,2.31-2.31,8.64-8.64-2.31C469.81,276.33,468.66,280.37,469.81,276.33ZM459.44,156.48l2.3,3.45h0l2.31,3.46L456.56,168,452,160.51Zm13.83,100.84.57-4.61,8.65,1.15-.58,4h0l-.58,4.6-8.64-.57Zm-4-83,3.46,8.07-8.07,3.45-1.73-4h0l-1.72-4Zm5.19,64v-4h8.64v8.64h-8.64Zm1.73-44.94,2.3,8.64-8.64,2.3-2.31-8.64C476.15,193.36,468.08,195.66,476.15,193.36Zm-2.88,25.35-.58-4,8.64-1.16,1.16,8.65-8.65,1.15Z" style="fill: #ffcb59"/>
    </g>
  </g>
</svg>
