<?xml version="1.0" encoding="utf-8"?>
<!-- Generator: Adobe Illustrator 22.1.0, SVG Export Plug-In . SVG Version: 6.00 Build 0)  -->
<svg version="1.1" id="Layer_1" xmlns="http://www.w3.org/2000/svg" xmlns:xlink="http://www.w3.org/1999/xlink" x="0px" y="0px"
	 width="52px" height="64px" viewBox="0 0 52 64" style="enable-background:new 0 0 52 64;" xml:space="preserve">
<style type="text/css">
	.st0{fill:#3A5569;}
	.st1{fill:#464748;}
	.st2{fill:#647A8A;}
	.st3{fill:#6A6B6B;}
	.st4{fill:#00B6E2;}
	.st5{opacity:0.15;}
	.st6{fill:#EBF0F2;}
	.st7{fill:#348693;}
</style>
<g>
	<rect y="50" class="st0" width="52" height="14"/>
</g>
<g>
	<rect x="7" y="8" class="st1" width="38" height="42"/>
</g>
<g>
	<rect y="50" class="st2" width="52" height="2"/>
</g>
<g>
	<rect y="50" class="st1" width="52" height="14"/>
</g>
<g>
	<rect x="13" y="4" class="st1" width="26" height="4"/>
</g>
<g>
	<rect x="20" y="52" class="st3" width="12" height="12"/>
</g>
<g>
	<rect y="50" class="st3" width="52" height="2"/>
</g>
<g>
	<rect x="21" y="2" class="st1" width="10" height="2"/>
</g>
<g>
	<rect x="25" class="st1" width="2" height="2"/>
</g>
<g>
	<rect x="2" y="54" class="st4" width="7" height="8"/>
</g>
<g>
	<rect x="11" y="54" class="st4" width="7" height="8"/>
</g>
<g>
	<rect x="22" y="56" class="st1" width="8" height="8"/>
</g>
<g>
	<path class="st1" d="M30,56c0-2.2-1.8-4-4-4s-4,1.8-4,4H30z"/>
</g>
<g>
	<rect x="9" y="10" class="st3" width="4" height="8"/>
</g>
<g>
	<rect x="15" y="10" class="st3" width="4" height="8"/>
</g>
<g>
	<rect x="21" y="10" class="st3" width="4" height="8"/>
</g>
<g>
	<rect x="27" y="10" class="st3" width="4" height="8"/>
</g>
<g>
	<rect x="33" y="10" class="st3" width="4" height="8"/>
</g>
<g>
	<rect x="39" y="10" class="st3" width="4" height="8"/>
</g>
<g>
	<rect x="9" y="20" class="st3" width="4" height="8"/>
</g>
<g>
	<rect x="15" y="20" class="st3" width="4" height="8"/>
</g>
<g>
	<rect x="21" y="20" class="st3" width="4" height="8"/>
</g>
<g>
	<rect x="27" y="20" class="st3" width="4" height="8"/>
</g>
<g>
	<rect x="33" y="20" class="st3" width="4" height="8"/>
</g>
<g>
	<rect x="39" y="20" class="st3" width="4" height="8"/>
</g>
<g>
	<rect x="9" y="30" class="st3" width="4" height="8"/>
</g>
<g>
	<rect x="15" y="30" class="st3" width="4" height="8"/>
</g>
<g>
	<rect x="21" y="30" class="st3" width="4" height="8"/>
</g>
<g>
	<rect x="27" y="30" class="st3" width="4" height="8"/>
</g>
<g>
	<rect x="33" y="30" class="st3" width="4" height="8"/>
</g>
<g>
	<rect x="39" y="30" class="st3" width="4" height="8"/>
</g>
<g>
	<rect x="9" y="40" class="st3" width="4" height="8"/>
</g>
<g>
	<rect x="15" y="40" class="st3" width="4" height="8"/>
</g>
<g>
	<rect x="21" y="40" class="st3" width="4" height="8"/>
</g>
<g>
	<rect x="27" y="40" class="st3" width="4" height="8"/>
</g>
<g>
	<rect x="33" y="40" class="st3" width="4" height="8"/>
</g>
<g>
	<rect x="39" y="40" class="st3" width="4" height="8"/>
</g>
<g class="st5">
	<polygon class="st6" points="31.8,8 6.8,8 6.8,50 19.8,50 	"/>
</g>
<g>
	<rect x="2" y="54" class="st7" width="7" height="2"/>
</g>
<g>
	<rect x="11" y="54" class="st7" width="7" height="2"/>
</g>
<g>
	<rect x="34" y="54" class="st4" width="7" height="8"/>
</g>
<g>
	<rect x="43" y="54" class="st4" width="7" height="8"/>
</g>
<g>
	<rect x="34" y="54" class="st7" width="7" height="2"/>
</g>
<g>
	<rect x="43" y="54" class="st7" width="7" height="2"/>
</g>
</svg>
