<svg xmlns="http://www.w3.org/2000/svg" viewBox="0 0 512 512">
  <title>phone_svg</title>
  <circle cx="256" cy="259" r="239" style="fill: #1eb7e0"/>
  <path d="M86,261.11A161.9,161.9,0,0,0,247.89,423H409.77V261.11a161.89,161.89,0,0,0-323.77,0Z" style="fill: #e56838"/>
  <path d="M86,240.88A161.89,161.89,0,0,0,247.89,402.76H409.77V240.88a161.89,161.89,0,1,0-323.77,0Z" style="fill: #ff7a3f"/>
  <path d="M354.71,311.25c-12.89-12.89-24.19-22.47-33.72-12.94a57.13,57.13,0,0,1-11.66,9.18c-24.63,14.27-46.33-6.12-71.82-31.63s-45.78-47.06-31.76-71.6a56.63,56.63,0,0,1,9.31-11.88c9.53-9.52-.05-20.84-12.93-33.72s-24.2-22.47-33.73-12.94A97.87,97.87,0,0,0,156,160.81c-26.51,39.95-9.23,88.09,49.64,147s107,76.14,146.94,49.65A98.13,98.13,0,0,0,367.65,345C377.18,335.44,367.6,324.13,354.71,311.25Z" style="fill: #ebf0f2"/>
  <path d="M309.25,258.21H299.13a44,44,0,0,0-44-44V204.12A54.16,54.16,0,0,1,309.25,258.21Z" style="fill: #ffcb58"/>
  <path d="M337.85,254.12H327.73a68.57,68.57,0,0,0-68.49-68.48V175.53A78.69,78.69,0,0,1,337.85,254.12Z" style="fill: #ffcb58"/>
  <path d="M366.45,250H356.34a93.11,93.11,0,0,0-93-93V146.92A103.24,103.24,0,0,1,366.45,250Z" style="fill: #ffcb58"/>
</svg>
