<?xml version="1.0" encoding="utf-8"?>
<!-- Generator: Adobe Illustrator 22.1.0, SVG Export Plug-In . SVG Version: 6.00 Build 0)  -->
<svg version="1.1" id="Isolation_Mode" xmlns="http://www.w3.org/2000/svg" xmlns:xlink="http://www.w3.org/1999/xlink" x="0px"
	 y="0px" width="77px" height="75.2px" viewBox="0 0 77 75.2" style="enable-background:new 0 0 77 75.2;" xml:space="preserve">
<style type="text/css">
	.st0{fill:#348693;}
	.st1{fill:#D3D7D9;}
	.st2{fill:#EBF0F2;}
	.st3{fill:#828586;}
	.st4{fill:#00B6E2;}
	.st5{fill:#E56133;}
	.st6{fill:#FF7A40;}
	.st7{fill:#33495B;}
	.st8{fill:#464748;}
</style>
<g>
	<g>
		<path class="st0" d="M77,58c0,1.1-0.9,2-2,2H23c-1.1,0-2-0.9-2-2V25h2l25,16h2l25.3-15.9L77,25V58z"/>
	</g>
	<g>
		<polygon class="st0" points="48,0 21,25 49,43 77,25 50,0 		"/>
	</g>
	<g>
		<g>
			<circle class="st1" cx="74" cy="10" r="3"/>
		</g>
		<g>
			<rect x="71" y="10" class="st1" width="3" height="3"/>
		</g>
		<g>
			<path class="st2" d="M31,7c-2.2,0-4,1.8-4,4v34h44V11v-1c0-1.8,1.5-3,3-3H31z"/>
		</g>
		<g>
			<rect x="33" y="25" class="st3" width="32" height="2"/>
		</g>
		<g>
			<rect x="33" y="21" class="st3" width="32" height="2"/>
		</g>
		<g>
			<rect x="51" y="15" class="st3" width="14" height="2"/>
		</g>
		<g>
			<rect x="33" y="29" class="st3" width="32" height="2"/>
		</g>
		<g>
			<rect x="33" y="33" class="st3" width="32" height="2"/>
		</g>
		<g>
			<rect x="33" y="37" class="st3" width="32" height="2"/>
		</g>
	</g>
	<g>
		<path class="st4" d="M77,54c0,1.1-0.9,2-2,2H23c-1.1,0-2-0.9-2-2V25h2l25,16h2l25.3-15.9L77,25V54z"/>
	</g>
</g>
<g>
	<g>
		<path class="st5" d="M38,71.9c0,1.8-1.5,3.3-3.3,3.3H3.3c-1.8,0-3.3-1.5-3.3-3.3H38z"/>
	</g>
	<g>
		<path class="st5" d="M38,71.9H0V47.1c0-1.8,1.5-3.3,3.3-3.3h31.4c1.8,0,3.3,1.5,3.3,3.3V71.9z"/>
	</g>
	<g>
		<rect x="6.6" y="43.8" class="st6" width="24.8" height="28.1"/>
	</g>
	<g>
		<g>
			<path class="st1" d="M33.9,42.1c-0.9,0-1.7-0.7-1.7-1.7c0-7.3-5.9-13.2-13.2-13.2c-7.3,0-13.2,5.9-13.2,13.2
				c0,0.9-0.7,1.7-1.7,1.7c-0.9,0-1.7-0.7-1.7-1.7C2.5,31.4,9.9,24,19,24c9.1,0,16.5,7.4,16.5,16.5C35.5,41.4,34.8,42.1,33.9,42.1z"
				/>
		</g>
	</g>
	<g>
		<circle class="st7" cx="19" cy="54.5" r="3.3"/>
	</g>
	<g>
		<polygon class="st8" points="22.3,64.4 15.7,64.4 17.3,56.2 20.7,56.2 		"/>
	</g>
</g>
</svg>
