<svg xmlns="http://www.w3.org/2000/svg" viewBox="0 0 600 600">
  <title>safety</title>
  <circle cx="300.52" cy="300.53" r="286.32" style="fill: #fff"/>
  <g>
    <g>
      <path d="M470.11,386.53a9.39,9.39,0,0,1-9.36,9.37H217.28a9.39,9.39,0,0,1-9.36-9.37V232h9.36l117,74.91h9.37L462.15,232.5l8-.47Z" style="fill: #348793"/>
      <polygon points="334.33 114.98 207.92 232.03 339.01 316.3 470.11 232.03 343.7 114.98 334.33 114.98" style="fill: #348793"/>
      <g>
        <circle cx="456.06" cy="161.8" r="14.05" style="fill: #d4d7d9"/>
        <rect x="442.02" y="161.8" width="14.05" height="14.05" style="fill: #d4d7d9"/>
        <path d="M254.74,147.75A18.79,18.79,0,0,0,236,166.48V325.67H442V161.8a14.07,14.07,0,0,1,14-14.05Z" style="fill: #ecf0f2"/>
        <rect x="264.1" y="232.03" width="149.82" height="9.36" style="fill: #838586"/>
        <rect x="264.1" y="213.3" width="149.82" height="9.36" style="fill: #838586"/>
        <rect x="348.38" y="185.21" width="65.55" height="9.36" style="fill: #838586"/>
        <rect x="264.1" y="250.76" width="149.82" height="9.36" style="fill: #838586"/>
        <rect x="264.1" y="269.48" width="149.82" height="9.36" style="fill: #838586"/>
        <rect x="264.1" y="288.21" width="149.82" height="9.36" style="fill: #838586"/>
      </g>
      <path d="M470.11,367.81a9.38,9.38,0,0,1-9.36,9.36H217.28a9.38,9.38,0,0,1-9.36-9.36V232h9.36l117,74.91h9.37L462.15,232.5l8-.47Z" style="fill: #00b6e1"/>
    </g>
    <g>
      <path d="M287.51,451.61a15.58,15.58,0,0,1-15.45,15.45h-147a15.58,15.58,0,0,1-15.45-15.45Z" style="fill: #e56132"/>
      <path d="M287.51,451.61H109.6V335.5a15.58,15.58,0,0,1,15.45-15.45h147a15.58,15.58,0,0,1,15.45,15.45Z" style="fill: #e56132"/>
      <rect x="140.5" y="320.05" width="116.11" height="131.56" style="fill: #f47946"/>
      <path d="M268.32,312.09a7.89,7.89,0,0,1-8-8,61.81,61.81,0,0,0-123.61,0,8,8,0,1,1-15.91,0,77.49,77.49,0,0,1,155,.47A7.4,7.4,0,0,1,268.32,312.09Z" style="fill: #d4d7d9"/>
      <circle cx="198.56" cy="370.15" r="15.45" style="fill: #344a5c"/>
      <polygon points="214.01 416.5 183.11 416.5 190.6 378.11 206.52 378.11 214.01 416.5" style="fill: #474849"/>
    </g>
  </g>
</svg>
