<?xml version="1.0" encoding="utf-8"?>
<!-- Generator: Adobe Illustrator 22.1.0, SVG Export Plug-In . SVG Version: 6.00 Build 0)  -->
<svg version="1.1" id="Layer_1" xmlns="http://www.w3.org/2000/svg" xmlns:xlink="http://www.w3.org/1999/xlink" x="0px" y="0px"
	 width="54px" height="58px" viewBox="0 0 54 58" style="enable-background:new 0 0 54 58;" xml:space="preserve">
<style type="text/css">
	.st0{fill:#E1E6E8;}
	.st1{fill:#00B6E2;}
	.st2{fill:#EBF0F2;}
	.st3{fill:#464748;}
	.st4{fill:#D3D7D9;}
	.st5{fill:#FF7A40;}
	.st6{fill:#FFBF5C;}
</style>
<g>
	<g>
		<rect y="8" class="st0" width="54" height="46"/>
	</g>
	<g>
		<rect x="4" y="12" class="st1" width="46" height="38"/>
	</g>
	<g>
		<path class="st2" d="M54,2c0-1.1-0.9-2-2-2H2C0.9,0,0,0.9,0,2v6h54V2z"/>
	</g>
	<g>
		<path class="st3" d="M42,31c0-0.3,0-0.7,0-1l-5.8-1.5l4.3-4.2c-0.3-0.6-0.6-1.2-1-1.7l-5.8,1.7l1.7-5.8c-0.5-0.4-1.1-0.7-1.7-1
			l-4.2,4.3L28,16c-0.3,0-0.7,0-1,0s-0.7,0-1,0l-1.5,5.8l-4.2-4.3c-0.6,0.3-1.2,0.6-1.7,1l1.7,5.8l-5.8-1.7c-0.4,0.5-0.7,1.1-1,1.7
			l4.3,4.2L12,30c0,0.3,0,0.7,0,1s0,0.7,0,1l5.8,1.5l-4.3,4.2c0.3,0.6,0.6,1.2,1,1.7l5.8-1.7l-1.7,5.8c0.5,0.4,1.1,0.7,1.7,1
			l4.2-4.3L26,46c0.3,0,0.7,0,1,0s0.7,0,1,0l1.5-5.8l4.2,4.3c0.6-0.3,1.2-0.6,1.7-1l-1.7-5.8l5.8,1.7c0.4-0.5,0.7-1.1,1-1.7
			l-4.3-4.2L42,32C42,31.7,42,31.3,42,31z"/>
	</g>
	<g>
		<path class="st4" d="M0,56c0,1.1,0.9,2,2,2h50c1.1,0,2-0.9,2-2v-2H0V56z"/>
	</g>
	<g>
		<circle class="st5" cx="6" cy="4" r="2"/>
	</g>
	<g>
		<circle class="st6" cx="12" cy="4" r="2"/>
	</g>
	<g>
		<circle class="st5" cx="18" cy="4" r="2"/>
	</g>
	<g>
		<circle class="st3" cx="27" cy="31" r="11"/>
	</g>
	<g>
		<circle class="st4" cx="27" cy="31" r="6"/>
	</g>
	<g>
		<circle class="st3" cx="27" cy="31" r="2"/>
	</g>
</g>
</svg>
