<svg xmlns="http://www.w3.org/2000/svg" viewBox="0 0 600 600">
  <title>startups</title>
  <circle cx="300.52" cy="300.53" r="286.32" style="fill: #fff"/>
  <g>
    <rect x="133.82" y="174.21" width="332.21" height="282.99" style="fill: #e1e6e7"/>
    <rect x="158.43" y="198.82" width="282.99" height="233.78" style="fill: #00b6e1"/>
    <path d="M466,137.3A12.34,12.34,0,0,0,453.73,125H146.13a12.35,12.35,0,0,0-12.31,12.31v36.91H466Z" style="fill: #ecf0f2"/>
    <path d="M392.21,315.71v-6.16l-35.68-9.22L383,274.49A58.92,58.92,0,0,0,376.83,264l-35.68,10.46,10.45-35.68a58.51,58.51,0,0,0-10.45-6.16l-25.84,26.46-9.23-35.68h-12.3l-9.23,35.68-25.84-26.46a59,59,0,0,0-10.46,6.16l10.46,35.68L223,264a58.32,58.32,0,0,0-6.15,10.46l26.45,25.84-35.68,9.22v12.31l35.68,9.23-26.45,25.84A57.89,57.89,0,0,0,223,367.38l35.68-10.45-10.46,35.68a58.92,58.92,0,0,0,10.46,6.15l25.84-26.45L293.78,408h12.3l9.23-35.68,25.84,26.45a58.48,58.48,0,0,0,10.45-6.15l-10.45-35.68,35.68,10.45A58.48,58.48,0,0,0,383,356.93l-26.45-25.84,35.68-9.23Z" style="fill: #474849"/>
    <path d="M133.82,469.51a12.34,12.34,0,0,0,12.31,12.3h307.6a12.34,12.34,0,0,0,12.3-12.3V457.2H133.82Z" style="fill: #d4d7d9"/>
    <circle cx="170.74" cy="149.6" r="12.3" style="fill: #f47946"/>
    <circle cx="207.65" cy="149.6" r="12.3" style="fill: #fdbf5d"/>
    <circle cx="244.56" cy="149.6" r="12.3" style="fill: #f47946"/>
    <circle cx="299.93" cy="315.71" r="67.67" style="fill: #474849"/>
    <circle cx="299.93" cy="315.71" r="36.91" style="fill: #d4d7d9"/>
    <circle cx="299.93" cy="315.71" r="12.3" style="fill: #474849"/>
  </g>
</svg>
