<?xml version="1.0" encoding="utf-8"?>
<!-- Generator: Adobe Illustrator 22.1.0, SVG Export Plug-In . SVG Version: 6.00 Build 0)  -->
<svg version="1.1" id="Layer_1" xmlns="http://www.w3.org/2000/svg" xmlns:xlink="http://www.w3.org/1999/xlink" x="0px" y="0px"
	 width="61.8px" height="73.9px" viewBox="0 0 61.8 73.9" style="enable-background:new 0 0 61.8 73.9;" xml:space="preserve">
<style type="text/css">
	.st0{fill:#FF7A40;}
	.st1{fill:#FFCB58;}
	.st2{fill:#647A8A;}
	.st3{fill:#00B6E2;}
	.st4{fill:#08A3BC;}
	.st5{fill:#4E5960;}
	.st6{fill:#EBF0F2;}
	.st7{fill:#FFFFFF;}
</style>
<g>
	<g>
		<path class="st0" d="M15,8.9c1.3-1.3,2.7-2.4,4.2-3.4c1.5-1,3-1.8,4.7-2.5c1.6-0.7,3.3-1.2,5-1.5c1.7-0.4,3.5-0.5,5.2-0.6
			c1.8,0,3.5,0.1,5.3,0.5c1.8,0.3,3.5,0.8,5.2,1.5L44,4.3c-1.6-0.6-3.2-1.1-4.9-1.4c-1.6-0.3-3.3-0.5-5-0.4c-1.7,0-3.3,0.2-5,0.5
			c-1.6,0.3-3.2,0.8-4.8,1.5c-1.5,0.6-3,1.4-4.4,2.4c-1.4,0.9-2.7,2-4,3.2L15,8.9z"/>
	</g>
	<g>
		<path class="st0" d="M29.3,55.4l0.3-1.5c1.6,0.3,3.3,0.5,5,0.4c1.7,0,3.3-0.2,5-0.5c1.6-0.3,3.2-0.8,4.8-1.5
			c1.5-0.6,3-1.4,4.4-2.4c1.4-0.9,2.7-2,4-3.2l1.1,1.1c-1.3,1.3-2.7,2.4-4.2,3.4c-1.5,1-3.1,1.8-4.7,2.5c-1.6,0.7-3.3,1.2-5,1.5
			c-1.7,0.3-3.5,0.5-5.2,0.6C32.8,55.9,31,55.7,29.3,55.4z"/>
	</g>
	<g>
		<polygon class="st0" points="27.7,54.4 31.5,51.7 32.4,52.9 29.8,54.7 31.6,57.3 30.4,58.1 		"/>
	</g>
	<g>
		<polygon class="st0" points="41.2,4.8 44,3.5 42.7,0.7 44,0 46,4.1 41.9,6.2 		"/>
	</g>
	<g>
		<path class="st1" d="M7.4,33.8l-0.1-0.7l1.5-0.3L9,34.2l-1.5,0.3C7.4,33.8,7.6,34.5,7.4,33.8z M9.5,36l0.5,1.4l-1.4,0.5l-0.5-1.4
			C9.5,36,8.1,36.5,9.5,36z M6.9,30.3L6.9,30.3l-0.1-0.8l1.5-0.1l0.1,1.5L7,31C6.9,30.3,7,31,6.9,30.3z M10.7,39.2l0.7,1.4L10,41.2
			l-0.7-1.4C10.7,39.2,9.4,39.8,10.7,39.2z M6.9,26.7L7,26l1.5,0.1l-0.1,1.5l-1.5-0.1C6.9,26.7,6.9,27.5,6.9,26.7z M12.3,42.1
			l0.8,1.3l-1.2,0.8L11,43C12.3,42.1,11,43,12.3,42.1z M7.4,23.2l0.1-0.7L9,22.7l-0.3,1.5l-1.5-0.3C7.4,23.2,7.2,23.9,7.4,23.2z
			 M8.3,19.8L8.3,19.8l0.2-0.7l1.4,0.5l-0.5,1.4L8,20.5C8.3,19.8,8,20.5,8.3,19.8z M9.6,16.5L9.6,16.5l0.3-0.7l1.4,0.7l-0.7,1.3
			l-1.3-0.6C9.6,16.5,9.3,17.2,9.6,16.5z M11.3,13.4l0.4-0.6l1.3,0.8l-0.8,1.3L10.9,14C11.3,13.4,10.9,14,11.3,13.4z"/>
	</g>
	<g>
		<path class="st1" d="M57,41l0.4-0.7l1.3,0.7L58,42.4l-1.3-0.7C57,41,56.6,41.7,57,41z M53.3,8.5L53.8,9c0,0,0,0,0,0l0.5,0.5
			l-1.1,1.1L52.7,10l0,0l-0.5-0.5C53.3,8.5,52.2,9.5,53.3,8.5z M58.4,38l0.3-0.7l1.4,0.6l-0.3,0.7l0,0l-0.3,0.7l-1.4-0.6
			C58.4,38,58.2,38.7,58.4,38z M55.7,11.1l0.5,0.6l0,0l0.4,0.6l-1.2,0.9L54.5,12C55.7,11.1,54.5,12,55.7,11.1z M59.5,34.8l0.2-0.7
			l1.5,0.4l-0.4,1.5l-1.5-0.4C59.5,34.8,59.3,35.5,59.5,34.8z M57.7,14l0.4,0.6c0,0,0,0,0,0l0.4,0.6L57.2,16l-0.8-1.3
			C57.7,14,56.4,14.7,57.7,14z M60.1,31.5l0.1-0.8l1.5,0.2l-0.1,0.7l0,0l-0.1,0.8L60,32.3C60.1,31.5,60,32.3,60.1,31.5z M59.4,17.1
			l0.6,1.4l-1.4,0.6l-0.3-0.7l0,0L58,17.7C59.4,17.1,58,17.7,59.4,17.1z M60.3,28.2l0-0.7l1.5,0l0,1.5l-1.5,0
			C60.3,28.2,60.3,28.9,60.3,28.2z M60.6,20.4l0.4,1.5l-1.5,0.4l-0.4-1.5C60.6,20.4,59.2,20.8,60.6,20.4z M60.1,24.8L60,24.1
			l1.5-0.2l0.2,1.5l-1.5,0.2C60.1,24.8,60.2,25.6,60.1,24.8z"/>
	</g>
</g>
<g>
	<g>
		<path class="st2" d="M20.3,51.3c-0.8,0.1-1.6,0-2.2-0.5c-1.3-1-1.6-2.8-0.7-4.2l5-6.9c1-1.3,2.8-1.6,4.2-0.7
			c1.3,1,1.6,2.8,0.7,4.2l-5,6.9C21.7,50.7,21,51.1,20.3,51.3z"/>
	</g>
	<g>
		<g>
			<path class="st3" d="M5.7,73.9C4.4,74.1,3.1,73.8,2,73c-2.2-1.6-2.3-5.2-1.5-6.4l14.1-19.5c0.8-1.1,4.3-2.2,6.5-0.6
				c2.2,1.6,2.3,5.2,1.5,6.4L8.5,72.4C7.7,73.5,7,73.7,5.7,73.9z"/>
		</g>
	</g>
	<g>
		<g>
			
				<rect x="7.2" y="58.8" transform="matrix(0.5849 -0.8111 0.8111 0.5849 -48.1553 33.4776)" class="st4" width="2.8" height="9.9"/>
		</g>
	</g>
	<g>
		<g>
			
				<rect x="10.5" y="54.2" transform="matrix(0.5849 -0.8111 0.8111 0.5849 -43.0602 34.2566)" class="st4" width="2.8" height="9.9"/>
		</g>
	</g>
	<g>
		<g>
			
				<rect x="13.8" y="49.7" transform="matrix(0.5849 -0.8111 0.8111 0.5849 -37.9651 35.0356)" class="st4" width="2.8" height="9.9"/>
		</g>
	</g>
	<g>
		<circle class="st5" cx="34.7" cy="27.7" r="19"/>
	</g>
	<g>
		<circle class="st6" cx="34.7" cy="27.7" r="15"/>
	</g>
	<g>
		<circle class="st7" cx="33.4" cy="19.8" r="3"/>
	</g>
</g>
</svg>
