<svg xmlns="http://www.w3.org/2000/svg" viewBox="0 0 600 600">
  <title>surveys</title>
  <circle cx="300.52" cy="300.53" r="286.32" style="fill: #fff"/>
  <g>
    <g>
      <path d="M501,303.77a14.8,14.8,0,0,1-14.75,14.75H294.46a14.8,14.8,0,0,1-14.76-14.75V193.1a14.8,14.8,0,0,1,14.76-14.75H486.28A14.8,14.8,0,0,1,501,193.1Z" style="fill: #e56132"/>
      <polygon points="349.79 362.79 342.41 362.79 342.41 303.77 408.81 303.77 349.79 362.79" style="fill: #e56132"/>
      <polygon points="349.79 344.34 342.41 344.34 342.41 285.32 408.81 285.32 349.79 344.34" style="fill: #f47946"/>
      <path d="M501,289a14.8,14.8,0,0,1-14.75,14.76H294.46A14.8,14.8,0,0,1,279.7,289V178.35a14.8,14.8,0,0,1,14.76-14.76H486.28A14.8,14.8,0,0,1,501,178.35Z" style="fill: #f47946"/>
      <circle cx="390.37" cy="241.06" r="11.07" style="fill: #e56132"/>
      <circle cx="427.26" cy="241.06" r="11.07" style="fill: #e56132"/>
      <circle cx="353.48" cy="241.06" r="11.07" style="fill: #e56132"/>
      <circle cx="390.37" cy="233.68" r="11.07" style="fill: #ecf0f2"/>
      <circle cx="427.26" cy="233.68" r="11.07" style="fill: #ecf0f2"/>
      <circle cx="353.48" cy="233.68" r="11.07" style="fill: #ecf0f2"/>
    </g>
    <g>
      <path d="M96,384.92a14.8,14.8,0,0,0,14.75,14.76H302.57a14.8,14.8,0,0,0,14.76-14.76V274.26a14.8,14.8,0,0,0-14.76-14.76H110.75A14.8,14.8,0,0,0,96,274.26Z" style="fill: #348793"/>
      <polygon points="247.24 443.94 254.62 443.94 254.62 384.92 188.22 384.92 247.24 443.94" style="fill: #348793"/>
      <polygon points="247.24 425.5 254.62 425.5 254.62 366.48 188.22 366.48 247.24 425.5" style="fill: #00b6e1"/>
      <path d="M96,370.17a14.8,14.8,0,0,0,14.75,14.75H302.57a14.8,14.8,0,0,0,14.76-14.75V259.5a14.8,14.8,0,0,0-14.76-14.76H110.75A14.8,14.8,0,0,0,96,259.5Z" style="fill: #00b6e1"/>
      <circle cx="206.66" cy="322.21" r="11.07" style="fill: #348793"/>
      <circle cx="169.78" cy="322.21" r="11.07" style="fill: #348793"/>
      <circle cx="243.55" cy="322.21" r="11.07" style="fill: #348793"/>
      <circle cx="206.66" cy="314.83" r="11.07" style="fill: #ecf0f2"/>
      <circle cx="169.78" cy="314.83" r="11.07" style="fill: #ecf0f2"/>
      <circle cx="243.55" cy="314.83" r="11.07" style="fill: #ecf0f2"/>
    </g>
  </g>
</svg>
