<svg xmlns="http://www.w3.org/2000/svg" viewBox="0 0 600 600">
  <title>task-managment</title>
  <circle cx="300.52" cy="300.53" r="286.32" style="fill: #fff"/>
  <g>
    <g>
      <circle cx="447.26" cy="119.24" r="19.28" style="fill: #d4d7d9"/>
      <rect x="170.87" y="125.67" width="257.11" height="334.25" style="fill: #ecf0f2"/>
      <path d="M447.26,100H196.58v25.71H428v-6.43C428,112.82,434.41,100,447.26,100Z" style="fill: #ecf0f2"/>
      <rect x="151.58" y="447.06" width="257.11" height="38.57" style="fill: #d4d7d9"/>
      <circle cx="151.58" cy="466.35" r="19.28" style="fill: #d4d7d9"/>
      <circle cx="408.69" cy="466.35" r="19.28" style="fill: #ecf0f2"/>
      <rect x="427.98" y="119.24" width="19.28" height="19.28" style="fill: #d4d7d9"/>
      <circle cx="196.58" cy="125.67" r="25.71" style="fill: #ecf0f2"/>
      <rect x="222.29" y="305.65" width="154.27" height="12.86" style="fill: #d4d7d9"/>
      <rect x="222.29" y="344.22" width="154.27" height="12.86" style="fill: #d4d7d9"/>
      <rect x="222.29" y="382.78" width="154.27" height="12.86" style="fill: #d4d7d9"/>
      <path d="M340.56,250.37c10.28-10.93,16.71-25.07,16.71-41.14a57.61,57.61,0,0,0-57.85-57.85v57.85Z" style="fill: #ffcb59"/>
      <path d="M241.57,209.23h57.85V151.38A57.61,57.61,0,0,0,241.57,209.23Z" style="fill: #f47946"/>
      <path d="M241.57,209.23a57.61,57.61,0,0,0,57.85,57.85c16.07,0,30.21-6.42,41.14-16.71l-41.14-41.14Z" style="fill: #00b6e1"/>
    </g>
    <rect x="213.43" y="299.22" width="25.71" height="25.71" style="fill: #00b6e1"/>
    <g>
      <path d="M224.36,319.15c-.64,0-.64,0-1.29-.64l-5.78-5.79a1.82,1.82,0,1,1,2.57-2.57l5.79,5.79a2,2,0,0,1,0,2.57C225.65,319.15,225,319.15,224.36,319.15Z" style="fill: #fff"/>
      <path d="M224.36,319.15c-.64,0-.64,0-1.29-.64a2,2,0,0,1,0-2.57l9-9a1.82,1.82,0,0,1,2.57,2.57l-9,9C225.65,319.15,225,319.15,224.36,319.15Z" style="fill: #fff"/>
    </g>
    <rect x="213.43" y="337.79" width="25.71" height="25.71" style="fill: #00b6e1"/>
    <g>
      <path d="M224.36,357.72c-.64,0-.64,0-1.29-.65l-5.78-5.78a2,2,0,0,1,0-2.57,1.94,1.94,0,0,1,2.57,0l5.79,5.78a2,2,0,0,1,0,2.57C225.65,357.72,225,357.72,224.36,357.72Z" style="fill: #fff"/>
      <path d="M224.36,357.72c-.64,0-.64,0-1.29-.65a2,2,0,0,1,0-2.57l9-9a2,2,0,0,1,2.57,0,1.94,1.94,0,0,1,0,2.57l-9,9C225.65,357.72,225,357.72,224.36,357.72Z" style="fill: #fff"/>
    </g>
    <rect x="213.43" y="376.36" width="25.71" height="25.71" style="fill: #00b6e1"/>
    <g>
      <path d="M224.36,396.28c-.64,0-.64,0-1.29-.64l-5.78-5.79a1.82,1.82,0,1,1,2.57-2.57l5.79,5.79a2,2,0,0,1,0,2.57C225.65,396.28,225,396.28,224.36,396.28Z" style="fill: #fff"/>
      <path d="M224.36,396.28c-.64,0-.64,0-1.29-.64a2,2,0,0,1,0-2.57l9-9a2,2,0,0,1,2.57,0,1.94,1.94,0,0,1,0,2.57l-9,9C225.65,396.28,225,396.28,224.36,396.28Z" style="fill: #fff"/>
    </g>
  </g>
</svg>
