<?xml version="1.0" encoding="utf-8"?>
<!-- Generator: Adobe Illustrator 22.1.0, SVG Export Plug-In . SVG Version: 6.00 Build 0)  -->
<svg version="1.1" id="Layer_1" xmlns="http://www.w3.org/2000/svg" xmlns:xlink="http://www.w3.org/1999/xlink" x="0px" y="0px"
	 width="52px" height="60px" viewBox="0 0 52 60" style="enable-background:new 0 0 52 60;" xml:space="preserve">
<style type="text/css">
	.st0{fill:#D3D7D9;}
	.st1{fill:#EBF0F2;}
	.st2{fill:#FFCB58;}
	.st3{fill:#FF7A40;}
	.st4{fill:#00B6E2;}
	.st5{fill:#FFFFFF;}
</style>
<g>
	<g>
		<circle class="st0" cx="49" cy="3" r="3"/>
	</g>
	<g>
		<rect x="6" y="4" class="st1" width="40" height="52"/>
	</g>
	<g>
		<path class="st1" d="M49,0H10v4h36V3C46,2,47,0,49,0z"/>
	</g>
	<g>
		<rect x="3" y="54" class="st0" width="40" height="6"/>
	</g>
	<g>
		<circle class="st0" cx="3" cy="57" r="3"/>
	</g>
	<g>
		<circle class="st1" cx="43" cy="57" r="3"/>
	</g>
	<g>
		<rect x="46" y="3" class="st0" width="3" height="3"/>
	</g>
	<g>
		<circle class="st1" cx="10" cy="4" r="4"/>
	</g>
	<g>
		<rect x="14" y="32" class="st0" width="24" height="2"/>
	</g>
	<g>
		<rect x="14" y="38" class="st0" width="24" height="2"/>
	</g>
	<g>
		<rect x="14" y="44" class="st0" width="24" height="2"/>
	</g>
	<g>
		<path class="st2" d="M32.4,23.4C34,21.7,35,19.5,35,17c0-5-4-9-9-9v9L32.4,23.4z"/>
	</g>
	<g>
		<path class="st3" d="M17,17h9V8C21,8,17,12,17,17z"/>
	</g>
	<g>
		<path class="st4" d="M17,17c0,5,4,9,9,9c2.5,0,4.7-1,6.4-2.6L26,17H17z"/>
	</g>
</g>
<g>
	<rect x="12" y="31" class="st4" width="4" height="4"/>
</g>
<g>
	<g>
		<g>
			<path class="st5" d="M13.7,34.1c-0.1,0-0.1,0-0.2-0.1l-0.9-0.9c-0.1-0.1-0.1-0.3,0-0.4c0.1-0.1,0.3-0.1,0.4,0l0.9,0.9
				c0.1,0.1,0.1,0.3,0,0.4C13.9,34.1,13.8,34.1,13.7,34.1z"/>
		</g>
	</g>
	<g>
		<g>
			<path class="st5" d="M13.7,34.1c-0.1,0-0.1,0-0.2-0.1c-0.1-0.1-0.1-0.3,0-0.4l1.4-1.4c0.1-0.1,0.3-0.1,0.4,0
				c0.1,0.1,0.1,0.3,0,0.4l-1.4,1.4C13.9,34.1,13.8,34.1,13.7,34.1z"/>
		</g>
	</g>
</g>
<g>
	<rect x="12" y="37" class="st4" width="4" height="4"/>
</g>
<g>
	<g>
		<g>
			<path class="st5" d="M13.7,40.1c-0.1,0-0.1,0-0.2-0.1l-0.9-0.9c-0.1-0.1-0.1-0.3,0-0.4c0.1-0.1,0.3-0.1,0.4,0l0.9,0.9
				c0.1,0.1,0.1,0.3,0,0.4C13.9,40.1,13.8,40.1,13.7,40.1z"/>
		</g>
	</g>
	<g>
		<g>
			<path class="st5" d="M13.7,40.1c-0.1,0-0.1,0-0.2-0.1c-0.1-0.1-0.1-0.3,0-0.4l1.4-1.4c0.1-0.1,0.3-0.1,0.4,0
				c0.1,0.1,0.1,0.3,0,0.4l-1.4,1.4C13.9,40.1,13.8,40.1,13.7,40.1z"/>
		</g>
	</g>
</g>
<g>
	<rect x="12" y="43" class="st4" width="4" height="4"/>
</g>
<g>
	<g>
		<g>
			<path class="st5" d="M13.7,46.1c-0.1,0-0.1,0-0.2-0.1l-0.9-0.9c-0.1-0.1-0.1-0.3,0-0.4c0.1-0.1,0.3-0.1,0.4,0l0.9,0.9
				c0.1,0.1,0.1,0.3,0,0.4C13.9,46.1,13.8,46.1,13.7,46.1z"/>
		</g>
	</g>
	<g>
		<g>
			<path class="st5" d="M13.7,46.1c-0.1,0-0.1,0-0.2-0.1c-0.1-0.1-0.1-0.3,0-0.4l1.4-1.4c0.1-0.1,0.3-0.1,0.4,0
				c0.1,0.1,0.1,0.3,0,0.4l-1.4,1.4C13.9,46.1,13.8,46.1,13.7,46.1z"/>
		</g>
	</g>
</g>
</svg>
