<svg xmlns="http://www.w3.org/2000/svg" viewBox="0 0 600 600">
  <title>training</title>
  <circle cx="300.52" cy="300.53" r="286.32" style="fill: #fff"/>
  <g>
    <path d="M236.6,454.44a12.28,12.28,0,0,1-12.25,12.25H138.58a12.28,12.28,0,0,1-12.25-12.25V148.12a12.28,12.28,0,0,1,12.25-12.25h85.77a12.28,12.28,0,0,1,12.25,12.25Z" style="fill: #e56132"/>
    <path d="M236.6,442.19a12.29,12.29,0,0,1-12.25,12.25H138.58a12.29,12.29,0,0,1-12.25-12.25V148.12a12.28,12.28,0,0,1,12.25-12.25h85.77a12.28,12.28,0,0,1,12.25,12.25Z" style="fill: #f47946"/>
    <rect x="150.83" y="184.88" width="61.26" height="110.27" style="fill: #ecf0f2"/>
    <rect x="150.83" y="368.67" width="61.26" height="61.26" style="fill: #e56132"/>
    <rect x="163.09" y="233.89" width="36.76" height="12.25" style="fill: #474849"/>
    <rect x="163.09" y="258.39" width="36.76" height="12.25" style="fill: #474849"/>
    <rect x="163.09" y="209.38" width="36.76" height="12.25" style="fill: #474849"/>
    <path d="M359.13,454.44a12.28,12.28,0,0,1-12.25,12.25H261.11a12.28,12.28,0,0,1-12.25-12.25V148.12a12.28,12.28,0,0,1,12.25-12.25h85.77a12.28,12.28,0,0,1,12.25,12.25Z" style="fill: #348793"/>
    <path d="M359.13,442.19a12.29,12.29,0,0,1-12.25,12.25H261.11a12.29,12.29,0,0,1-12.25-12.25V148.12a12.28,12.28,0,0,1,12.25-12.25h85.77a12.28,12.28,0,0,1,12.25,12.25Z" style="fill: #00b6e1"/>
    <rect x="273.36" y="184.88" width="61.26" height="110.27" style="fill: #ecf0f2"/>
    <rect x="273.36" y="368.67" width="61.26" height="61.26" style="fill: #348793"/>
    <rect x="285.61" y="233.89" width="36.76" height="12.25" style="fill: #474849"/>
    <rect x="285.61" y="258.39" width="36.76" height="12.25" style="fill: #474849"/>
    <rect x="285.61" y="209.38" width="36.76" height="12.25" style="fill: #474849"/>
    <path d="M481.66,454.44a12.29,12.29,0,0,1-12.25,12.25H383.64a12.29,12.29,0,0,1-12.26-12.25V148.12a12.29,12.29,0,0,1,12.26-12.25h85.77a12.29,12.29,0,0,1,12.25,12.25Z" style="fill: #e0ad47"/>
    <path d="M481.66,442.19a12.3,12.3,0,0,1-12.25,12.25H383.64a12.3,12.3,0,0,1-12.26-12.25V148.12a12.29,12.29,0,0,1,12.26-12.25h85.77a12.29,12.29,0,0,1,12.25,12.25Z" style="fill: #ffcb59"/>
    <rect x="395.89" y="184.88" width="61.26" height="110.27" style="fill: #ecf0f2"/>
    <rect x="395.89" y="368.67" width="61.26" height="61.26" style="fill: #e0ad47"/>
    <rect x="408.14" y="233.89" width="36.76" height="12.25" style="fill: #474849"/>
    <rect x="408.14" y="258.39" width="36.76" height="12.25" style="fill: #474849"/>
    <rect x="408.14" y="209.38" width="36.76" height="12.25" style="fill: #474849"/>
  </g>
</svg>
