<?xml version="1.0" encoding="utf-8"?>
<!-- Generator: Adobe Illustrator 22.1.0, SVG Export Plug-In . SVG Version: 6.00 Build 0)  -->
<svg version="1.1" id="Layer_1" xmlns="http://www.w3.org/2000/svg" xmlns:xlink="http://www.w3.org/1999/xlink" x="0px" y="0px"
	 width="64px" height="60px" viewBox="0 0 64 60" style="enable-background:new 0 0 64 60;" xml:space="preserve">
<style type="text/css">
	.st0{fill:#EBF0F2;}
	.st1{fill:#D3D7D9;}
	.st2{fill:#464748;}
	.st3{fill:#FFFFFF;}
	.st4{fill:#FF7A40;}
	.st5{fill:#828586;}
</style>
<g>
	<polygon class="st0" points="40,46 24,46 22,58 42,58 	"/>
</g>
<g>
	<path class="st1" d="M0,38v4c0,2.2,1.8,4,4,4h56c2.2,0,4-1.8,4-4v-4H0z"/>
</g>
<g>
	<path class="st2" d="M60,0H4C1.8,0,0,1.8,0,4v34h64V4C64,1.8,62.2,0,60,0z"/>
</g>
<g>
	<rect x="4" y="4" class="st3" width="56" height="30"/>
</g>
<g>
	<polygon class="st1" points="44,58 20,58 19,60 45,60 	"/>
</g>
<g>
	<g>
		<rect x="12.8" y="8.2" class="st0" width="38.3" height="21.2"/>
	</g>
	<g>
		<rect x="12.8" y="29.4" class="st1" width="38.3" height="1.3"/>
	</g>
	<g>
		<rect x="32.7" y="14.8" class="st4" width="5.3" height="1.3"/>
	</g>
	<g>
		<rect x="39.3" y="14.8" class="st4" width="7.9" height="1.3"/>
	</g>
	<g>
		<rect x="32.7" y="12.2" class="st4" width="9.3" height="1.3"/>
	</g>
	<g>
		<rect x="32.7" y="20.1" class="st1" width="14.5" height="1.3"/>
	</g>
	<g>
		<rect x="32.7" y="22.8" class="st1" width="11.9" height="1.3"/>
	</g>
	<g>
		<rect x="32.7" y="17.5" class="st1" width="14.5" height="1.3"/>
	</g>
	<g>
		<path class="st3" d="M28.7,18.1c0-3.3-2.7-5.9-5.9-5.9s-5.9,2.7-5.9,5.9c0,1.9,0.6,3.5,2,4.6c0.5-1.5,2.2-2.6,4-2.6s3.4,1.1,4,2.6
			C28.1,21.7,28.7,20,28.7,18.1z"/>
	</g>
	<g>
		<circle class="st5" cx="22.7" cy="16.8" r="2"/>
	</g>
	<g>
		<path class="st5" d="M22.7,20.1c-1.7,0-3.4,1.1-4,2.6c1,0.8,2.6,1.3,4,1.3s2.9-0.5,4-1.3C26.2,21.2,24.5,20.1,22.7,20.1z"/>
	</g>
</g>
</svg>
